<svg width="22" height="23" viewBox="0 0 22 23" fill="none" xmlns="http://www.w3.org/2000/svg">
<g filter="url(#filter0_di_62_9)">
<circle cx="11" cy="10" r="10" fill="white"/>
</g>
<g clip-path="url(#clip0_62_9)">
<path d="M16 8.55867L15.6383 7.63736L15.8903 7.10882C15.906 7.07546 15.9108 7.03843 15.9038 7.00254C15.8969 6.96664 15.8786 6.93352 15.8513 6.90749L15.1665 6.25906C15.0198 6.1193 14.8337 6.02154 14.6299 5.97719C14.4262 5.93283 14.2132 5.9437 14.0158 6.00854L13.8281 6.07063L12.7834 5.00924L11.0001 5L9.21657 5.01311L8.17302 6.08309L7.98722 6.02143C7.78854 5.95589 7.57406 5.94485 7.36893 5.98961C7.1638 6.03436 6.97654 6.13305 6.82911 6.2741L6.12875 6.93478C6.10694 6.95548 6.0923 6.98188 6.08674 7.01052C6.08118 7.03915 6.08496 7.06869 6.0976 7.09528L6.36037 7.64445L6 8.5649L7.29373 13.1783C7.41602 13.6141 7.69731 13.996 8.08871 14.2575L10.6473 15.8838C10.7477 15.9591 10.8725 16.0001 11.0011 16.0001C11.1298 16.0001 11.2545 15.9591 11.355 15.8838L13.9122 14.2552C14.3043 13.9945 14.5854 13.6122 14.7058 13.1759L15.7613 9.39145L16 8.55867Z" fill="url(#paint0_linear_62_9)"/>
<path d="M11.2923 11.818C11.2247 11.7896 11.1549 11.7659 11.0836 11.7471H10.9578C10.8865 11.7659 10.8167 11.7896 10.7491 11.818L10.4327 11.9414L10.0753 12.0956L9.49341 12.3801C9.47208 12.3863 9.45326 12.3985 9.43941 12.4149C9.42556 12.4313 9.41733 12.4513 9.41579 12.4722C9.41426 12.4931 9.41949 12.514 9.4308 12.532C9.44212 12.5501 9.45899 12.5645 9.4792 12.5735L9.9846 12.9063C10.0915 12.9779 10.195 13.055 10.295 13.1375L10.4373 13.2524L10.7351 13.4967L10.8701 13.6084C10.9118 13.6408 10.9642 13.6586 11.0184 13.6586C11.0726 13.6586 11.125 13.6408 11.1668 13.6084L11.7484 13.1319L12.06 12.9005L12.5654 12.5612C12.5855 12.5523 12.6021 12.5378 12.6133 12.5198C12.6244 12.5018 12.6295 12.481 12.6278 12.4603C12.6261 12.4395 12.6178 12.4197 12.6038 12.4035C12.5899 12.3873 12.5711 12.3754 12.5498 12.3694L11.9688 12.0943L11.6094 11.9399L11.2923 11.818ZM14.8754 8.76428L14.8938 8.71487C14.8947 8.64891 14.8903 8.58297 14.8807 8.51763C14.8324 8.40044 14.7695 8.28908 14.6931 8.18589L14.3643 7.7334L14.1302 7.43518L13.6896 6.91953C13.6493 6.86923 13.6057 6.82137 13.559 6.77622H13.5499L13.3542 6.81016L12.3858 6.98506C12.2878 6.98929 12.1899 6.97587 12.0974 6.94552L11.5656 6.78438L11.1851 6.68576C11.0734 6.6748 10.9607 6.6748 10.849 6.68576L10.4675 6.78546L9.9358 6.94746C9.84318 6.97759 9.74531 6.99101 9.64736 6.98699L8.6801 6.81511L8.48445 6.78116H8.47528C8.4284 6.82615 8.38478 6.87403 8.3447 6.92447L7.90482 7.44012C7.82342 7.53681 7.74598 7.63621 7.67252 7.73834L7.34284 8.19083L7.18751 8.43383C7.15922 8.52718 7.14427 8.62363 7.14307 8.72067L7.16139 8.77008C7.16921 8.80175 7.17923 8.8329 7.19141 8.86333L7.45098 9.14264L8.60175 10.2898C8.64 10.3315 8.66561 10.3821 8.67588 10.4363C8.68616 10.4905 8.68073 10.5463 8.66017 10.5979L8.46704 11.016C8.42436 11.1266 8.42122 11.2473 8.4581 11.3597L8.49567 11.4569C8.55751 11.6146 8.66347 11.7538 8.80244 11.8599L8.9832 11.9981C9.03025 12.0297 9.08505 12.0497 9.14252 12.0561C9.19999 12.0626 9.25828 12.0553 9.31196 12.035L9.95481 11.7465C10.0731 11.6915 10.1838 11.6231 10.2843 11.5428L10.7988 11.1073C10.8195 11.09 10.8362 11.069 10.848 11.0455C10.8598 11.022 10.8665 10.9966 10.8676 10.9706C10.8685 10.9448 10.8639 10.919 10.854 10.8948C10.8442 10.8706 10.8293 10.8484 10.8103 10.8297L9.64736 10.096C9.60336 10.0667 9.57202 10.0236 9.55903 9.97454C9.54604 9.92545 9.55226 9.87362 9.57657 9.82847L10.027 9.03457C10.0527 8.98602 10.0679 8.93319 10.0719 8.87911C10.0758 8.82503 10.0683 8.77075 10.0499 8.71938C9.99382 8.62133 9.90322 8.54455 9.79353 8.50216L8.38135 8.00369C8.27963 7.96931 8.28513 7.92634 8.39304 7.92033L9.22238 7.84319C9.35244 7.8354 9.483 7.84627 9.60956 7.87542L10.3312 8.0645C10.3825 8.07895 10.4263 8.11036 10.4547 8.15288C10.4831 8.1954 10.4941 8.24614 10.4856 8.29568L10.2022 9.74832C10.1832 9.82876 10.1785 9.9116 10.1883 9.99348C10.1997 10.0281 10.2966 10.0708 10.4027 10.0951L10.8423 10.181C10.97 10.2032 11.1009 10.2032 11.2286 10.181L11.624 10.0951C11.7303 10.0736 11.8261 10.0257 11.8382 9.9909C11.8478 9.90906 11.8429 9.82631 11.8238 9.74596L11.5386 8.29375C11.5302 8.24422 11.5412 8.19352 11.5696 8.15102C11.598 8.10852 11.6418 8.0771 11.693 8.06256L12.4147 7.87284C12.5412 7.84368 12.6718 7.83281 12.8018 7.84061L13.6312 7.91302C13.7398 7.92248 13.7457 7.96029 13.6436 7.99639L12.2316 8.49765C12.1218 8.53977 12.0313 8.61673 11.9759 8.71508C11.9389 8.81886 11.9472 8.93216 11.9988 9.03027L12.4499 9.82417C12.4744 9.86935 12.4807 9.92125 12.4677 9.97042C12.4548 10.0196 12.4234 10.0628 12.3794 10.0921L11.2188 10.8275C11.1999 10.846 11.1851 10.8677 11.1753 10.8915C11.1654 10.9153 11.1607 10.9407 11.1614 10.9663C11.1621 10.9918 11.1682 11.017 11.1793 11.0403C11.1904 11.0636 11.2063 11.0846 11.2261 11.1021L11.2295 11.1051L11.7448 11.5407C11.8452 11.6206 11.9556 11.689 12.0735 11.7441L12.7164 12.031C12.7701 12.0513 12.8284 12.0585 12.8859 12.0519C12.9433 12.0453 12.9981 12.0251 13.0449 11.9931L13.2259 11.8546C13.365 11.7482 13.4709 11.6087 13.5324 11.4506L13.5702 11.3535C13.6071 11.241 13.6039 11.1204 13.5613 11.0097L13.3721 10.591C13.3517 10.5394 13.3464 10.4836 13.3566 10.4294C13.3669 10.3752 13.3924 10.3245 13.4305 10.2827L14.5813 9.13426L14.8401 8.85495C14.8539 8.82531 14.8657 8.79488 14.8754 8.76385V8.76428Z" fill="white"/>
</g>
<defs>
<filter id="filter0_di_62_9" x="0" y="0" width="22" height="23" filterUnits="userSpaceOnUse" color-interpolation-filters="sRGB">
<feFlood flood-opacity="0" result="BackgroundImageFix"/>
<feColorMatrix in="SourceAlpha" type="matrix" values="0 0 0 0 0 0 0 0 0 0 0 0 0 0 0 0 0 0 127 0" result="hardAlpha"/>
<feMorphology radius="2" operator="erode" in="SourceAlpha" result="effect1_dropShadow_62_9"/>
<feOffset dy="2"/>
<feGaussianBlur stdDeviation="1.5"/>
<feComposite in2="hardAlpha" operator="out"/>
<feColorMatrix type="matrix" values="0 0 0 0 0 0 0 0 0 0 0 0 0 0 0 0 0 0 0.25 0"/>
<feBlend mode="normal" in2="BackgroundImageFix" result="effect1_dropShadow_62_9"/>
<feBlend mode="normal" in="SourceGraphic" in2="effect1_dropShadow_62_9" result="shape"/>
<feColorMatrix in="SourceAlpha" type="matrix" values="0 0 0 0 0 0 0 0 0 0 0 0 0 0 0 0 0 0 127 0" result="hardAlpha"/>
<feMorphology radius="2" operator="dilate" in="SourceAlpha" result="effect2_innerShadow_62_9"/>
<feOffset/>
<feGaussianBlur stdDeviation="2.5"/>
<feComposite in2="hardAlpha" operator="arithmetic" k2="-1" k3="1"/>
<feColorMatrix type="matrix" values="0 0 0 0 0 0 0 0 0 0 0 0 0 0 0 0 0 0 0.25 0"/>
<feBlend mode="normal" in2="shape" result="effect2_innerShadow_62_9"/>
</filter>
<linearGradient id="paint0_linear_62_9" x1="5.99932" y1="10.4858" x2="16.0082" y2="10.4858" gradientUnits="userSpaceOnUse">
<stop stop-color="#F1562B"/>
<stop offset="0.3" stop-color="#F1542B"/>
<stop offset="0.41" stop-color="#F04D2A"/>
<stop offset="0.49" stop-color="#EF4229"/>
<stop offset="0.5" stop-color="#EF4029"/>
<stop offset="0.56" stop-color="#E83E28"/>
<stop offset="0.67" stop-color="#E13C26"/>
<stop offset="1" stop-color="#DF3C26"/>
</linearGradient>
<clipPath id="clip0_62_9">
<rect width="10" height="11" fill="white" transform="translate(6 5)"/>
</clipPath>
</defs>
</svg>
