<svg width="22" height="23" viewBox="0 0 22 23" fill="none" xmlns="http://www.w3.org/2000/svg">
<g filter="url(#filter0_di_62_38)">
<circle cx="11" cy="10" r="10" fill="white"/>
</g>
<g clip-path="url(#clip0_62_38)">
<path d="M15.0254 12.443C14.8921 12.5127 14.7546 12.5741 14.6137 12.627C14.1652 12.7948 13.6902 12.8802 13.2113 12.8793C11.3629 12.8793 9.75273 11.6078 9.75273 9.97617C9.7551 9.75733 9.81583 9.54309 9.92865 9.35555C10.0415 9.16802 10.2023 9.014 10.3945 8.90938C8.72266 8.97969 8.29297 10.7219 8.29297 11.7426C8.29297 14.6285 10.9527 14.9211 11.5258 14.9211C11.8348 14.9211 12.3008 14.8313 12.5805 14.743L12.6316 14.7258C13.7079 14.3537 14.6254 13.6263 15.2332 12.6633C15.2518 12.634 15.2601 12.5993 15.2568 12.5647C15.2535 12.5301 15.2388 12.4976 15.2149 12.4723C15.1911 12.4471 15.1595 12.4305 15.1252 12.4251C15.0909 12.4198 15.0558 12.4261 15.0254 12.443Z" fill="url(#paint0_linear_62_38)"/>
<path opacity="0.35" d="M15.0254 12.443C14.8921 12.5127 14.7546 12.5741 14.6137 12.627C14.1652 12.7948 13.6902 12.8802 13.2113 12.8793C11.3629 12.8793 9.75273 11.6078 9.75273 9.97617C9.7551 9.75733 9.81583 9.54309 9.92865 9.35555C10.0415 9.16802 10.2023 9.014 10.3945 8.90938C8.72266 8.97969 8.29297 10.7219 8.29297 11.7426C8.29297 14.6285 10.9527 14.9211 11.5258 14.9211C11.8348 14.9211 12.3008 14.8313 12.5805 14.743L12.6316 14.7258C13.7079 14.3537 14.6254 13.6263 15.2332 12.6633C15.2518 12.634 15.2601 12.5993 15.2568 12.5647C15.2535 12.5301 15.2388 12.4976 15.2149 12.4723C15.1911 12.4471 15.1595 12.4305 15.1252 12.4251C15.0909 12.4198 15.0558 12.4261 15.0254 12.443Z" fill="url(#paint1_radial_62_38)"/>
<path d="M10.1294 14.4305C9.78099 14.2142 9.47904 13.9309 9.24112 13.5969C8.96994 13.2253 8.78334 12.799 8.69439 12.3477C8.60544 11.8964 8.6163 11.4311 8.72621 10.9845C8.83612 10.5378 9.04242 10.1207 9.33064 9.76218C9.61886 9.40371 9.98201 9.11264 10.3946 8.90938C10.5165 8.85195 10.7247 8.74805 11.0017 8.75313C11.1968 8.75455 11.3889 8.80113 11.563 8.88924C11.7371 8.97734 11.8885 9.10456 12.0052 9.26094C12.1629 9.47156 12.2499 9.72673 12.2536 9.98985C12.2536 9.98164 13.2091 6.88047 9.12862 6.88047C7.41378 6.88047 6.00362 8.50781 6.00362 9.93555C5.99686 10.6908 6.15846 11.4381 6.47667 12.123C6.99672 13.2326 7.90614 14.1126 9.03225 14.5959C10.1584 15.0792 11.4227 15.1321 12.5853 14.7445C12.1782 14.8729 11.7482 14.9114 11.3248 14.8574C10.9014 14.8035 10.4948 14.6584 10.1329 14.432L10.1294 14.4305Z" fill="url(#paint2_linear_62_38)"/>
<path opacity="0.41" d="M10.1294 14.4305C9.78099 14.2142 9.47904 13.9309 9.24112 13.5969C8.96994 13.2253 8.78334 12.799 8.69439 12.3477C8.60544 11.8964 8.6163 11.4311 8.72621 10.9845C8.83612 10.5378 9.04242 10.1207 9.33064 9.76218C9.61886 9.40371 9.98201 9.11264 10.3946 8.90938C10.5165 8.85195 10.7247 8.74805 11.0017 8.75313C11.1968 8.75455 11.3889 8.80113 11.563 8.88924C11.7371 8.97734 11.8885 9.10456 12.0052 9.26094C12.1629 9.47156 12.2499 9.72673 12.2536 9.98985C12.2536 9.98164 13.2091 6.88047 9.12862 6.88047C7.41378 6.88047 6.00362 8.50781 6.00362 9.93555C5.99686 10.6908 6.15846 11.4381 6.47667 12.123C6.99672 13.2326 7.90614 14.1126 9.03225 14.5959C10.1584 15.0792 11.4227 15.1321 12.5853 14.7445C12.1782 14.8729 11.7482 14.9114 11.3248 14.8574C10.9014 14.8035 10.4948 14.6584 10.1329 14.432L10.1294 14.4305Z" fill="url(#paint3_radial_62_38)"/>
<path d="M11.9497 10.8148C11.918 10.8559 11.8208 10.9125 11.8208 11.0359C11.8208 11.1379 11.8872 11.2359 12.0051 11.3184C12.5668 11.709 13.6258 11.6574 13.6286 11.6574C14.0448 11.6564 14.4531 11.5438 14.811 11.3313C15.172 11.1205 15.4716 10.8189 15.6801 10.4566C15.8887 10.0942 15.9988 9.68368 15.9997 9.26563C16.0098 8.39023 15.6872 7.8082 15.5567 7.55039C14.729 5.93125 12.9422 5 10.9993 5C9.68528 4.99987 8.42405 5.51699 7.48836 6.43952C6.55268 7.36205 6.01775 8.61583 5.99927 9.92969C6.01802 8.50234 7.43677 7.34961 9.12427 7.34961C9.26099 7.34961 10.0407 7.36289 10.7649 7.74297C11.4032 8.07813 11.7375 8.48281 11.97 8.88398C12.2114 9.30078 12.2543 9.82734 12.2543 10.0371C12.2543 10.2469 12.1473 10.5578 11.9497 10.8148Z" fill="url(#paint4_radial_62_38)"/>
<path d="M11.9497 10.8148C11.918 10.8559 11.8208 10.9125 11.8208 11.0359C11.8208 11.1379 11.8872 11.2359 12.0051 11.3184C12.5668 11.709 13.6258 11.6574 13.6286 11.6574C14.0448 11.6564 14.4531 11.5438 14.811 11.3313C15.172 11.1205 15.4716 10.8189 15.6801 10.4566C15.8887 10.0942 15.9988 9.68368 15.9997 9.26563C16.0098 8.39023 15.6872 7.8082 15.5567 7.55039C14.729 5.93125 12.9422 5 10.9993 5C9.68528 4.99987 8.42405 5.51699 7.48836 6.43952C6.55268 7.36205 6.01775 8.61583 5.99927 9.92969C6.01802 8.50234 7.43677 7.34961 9.12427 7.34961C9.26099 7.34961 10.0407 7.36289 10.7649 7.74297C11.4032 8.07813 11.7375 8.48281 11.97 8.88398C12.2114 9.30078 12.2543 9.82734 12.2543 10.0371C12.2543 10.2469 12.1473 10.5578 11.9497 10.8148Z" fill="url(#paint5_radial_62_38)"/>
</g>
<defs>
<filter id="filter0_di_62_38" x="0" y="0" width="22" height="23" filterUnits="userSpaceOnUse" color-interpolation-filters="sRGB">
<feFlood flood-opacity="0" result="BackgroundImageFix"/>
<feColorMatrix in="SourceAlpha" type="matrix" values="0 0 0 0 0 0 0 0 0 0 0 0 0 0 0 0 0 0 127 0" result="hardAlpha"/>
<feMorphology radius="2" operator="erode" in="SourceAlpha" result="effect1_dropShadow_62_38"/>
<feOffset dy="2"/>
<feGaussianBlur stdDeviation="1.5"/>
<feComposite in2="hardAlpha" operator="out"/>
<feColorMatrix type="matrix" values="0 0 0 0 0 0 0 0 0 0 0 0 0 0 0 0 0 0 0.25 0"/>
<feBlend mode="normal" in2="BackgroundImageFix" result="effect1_dropShadow_62_38"/>
<feBlend mode="normal" in="SourceGraphic" in2="effect1_dropShadow_62_38" result="shape"/>
<feColorMatrix in="SourceAlpha" type="matrix" values="0 0 0 0 0 0 0 0 0 0 0 0 0 0 0 0 0 0 127 0" result="hardAlpha"/>
<feMorphology radius="2" operator="dilate" in="SourceAlpha" result="effect2_innerShadow_62_38"/>
<feOffset/>
<feGaussianBlur stdDeviation="2.5"/>
<feComposite in2="hardAlpha" operator="arithmetic" k2="-1" k3="1"/>
<feColorMatrix type="matrix" values="0 0 0 0 0 0 0 0 0 0 0 0 0 0 0 0 0 0 0.25 0"/>
<feBlend mode="normal" in2="shape" result="effect2_innerShadow_62_38"/>
</filter>
<linearGradient id="paint0_linear_62_38" x1="8.29297" y1="11.916" x2="15.2594" y2="11.916" gradientUnits="userSpaceOnUse">
<stop stop-color="#0C59A4"/>
<stop offset="1" stop-color="#114A8B"/>
</linearGradient>
<radialGradient id="paint1_radial_62_38" cx="0" cy="0" r="1" gradientUnits="userSpaceOnUse" gradientTransform="translate(12.1406 11.9709) scale(3.72578 3.53949)">
<stop offset="0.72" stop-opacity="0"/>
<stop offset="0.95" stop-opacity="0.53"/>
<stop offset="1"/>
</radialGradient>
<linearGradient id="paint2_linear_62_38" x1="11.9657" y1="8.89414" x2="7.61456" y2="13.6336" gradientUnits="userSpaceOnUse">
<stop stop-color="#1B9DE2"/>
<stop offset="0.16" stop-color="#1595DF"/>
<stop offset="0.67" stop-color="#0680D7"/>
<stop offset="1" stop-color="#0078D4"/>
</linearGradient>
<radialGradient id="paint3_radial_62_38" cx="0" cy="0" r="1" gradientTransform="matrix(0.839297 -5.53936 -4.47625 -0.671438 8.75692 12.7738)" gradientUnits="userSpaceOnUse">
<stop offset="0.76" stop-opacity="0"/>
<stop offset="0.95" stop-opacity="0.5"/>
<stop offset="1"/>
</radialGradient>
<radialGradient id="paint4_radial_62_38" cx="0" cy="0" r="1" gradientTransform="matrix(-0.316297 7.90742 16.8428 0.632594 7.00952 6.85066)" gradientUnits="userSpaceOnUse">
<stop stop-color="#35C1F1"/>
<stop offset="0.11" stop-color="#34C1ED"/>
<stop offset="0.23" stop-color="#2FC2DF"/>
<stop offset="0.31" stop-color="#2BC3D2"/>
<stop offset="0.67" stop-color="#36C752"/>
</radialGradient>
<radialGradient id="paint5_radial_62_38" cx="0" cy="0" r="1" gradientTransform="matrix(1.06466 3.65025 2.96583 -0.874539 15.3771 8.02368)" gradientUnits="userSpaceOnUse">
<stop stop-color="#66EB6E"/>
<stop offset="1" stop-color="#66EB6E" stop-opacity="0"/>
</radialGradient>
<clipPath id="clip0_62_38">
<rect width="10" height="10" fill="white" transform="translate(6 5)"/>
</clipPath>
</defs>
</svg>
