<svg width="22" height="23" viewBox="0 0 22 23" fill="none" xmlns="http://www.w3.org/2000/svg">
<g filter="url(#filter0_di_68_83)">
<circle cx="11" cy="10" r="10" fill="white"/>
</g>
<g clip-path="url(#clip0_68_83)">
<path d="M15.0181 7.60019C14.8062 7.05641 14.3764 6.46928 14.0398 6.28368C14.2799 6.77957 14.4465 7.31213 14.5337 7.86242L14.5346 7.87114C13.9832 6.40487 13.0481 5.81385 12.2845 4.5266C12.245 4.46098 12.2067 4.39458 12.1696 4.32745C12.1504 4.29238 12.1325 4.25657 12.1159 4.22008C12.0842 4.15467 12.0598 4.08554 12.0431 4.01409C12.0431 4.01079 12.042 4.0076 12.04 4.00512C12.0379 4.00265 12.0351 4.00106 12.032 4.00067C12.029 3.99979 12.0259 3.99979 12.0229 4.00067C12.0222 4.00067 12.0212 4.00187 12.0205 4.00201L12.0169 4.00416L12.0188 4.00067C10.7939 4.76561 10.3783 6.18169 10.34 6.89C9.85082 6.92582 9.38312 7.11804 8.99789 7.44156C8.9577 7.4053 8.91569 7.37139 8.87206 7.33997C8.76094 6.92515 8.7562 6.48613 8.85835 6.06869C8.40849 6.30112 8.00877 6.6306 7.68447 7.03628H7.68221C7.48893 6.77499 7.50252 5.91342 7.51359 5.73346C7.45641 5.75797 7.40183 5.78887 7.35077 5.82566C7.18015 5.95553 7.02064 6.10126 6.87412 6.26114C6.70716 6.44168 6.55466 6.63682 6.41824 6.84451C6.1047 7.31858 5.88231 7.85406 5.76392 8.42029L5.75737 8.45464C5.73938 8.56255 5.7234 8.67083 5.70943 8.77941C5.70943 8.7833 5.70868 8.78692 5.7083 8.79081C5.66561 9.02746 5.63916 9.2671 5.62915 9.50785V9.53469C5.63022 10.837 6.08932 12.0915 6.91571 13.0503C7.7421 14.0091 8.87566 14.6023 10.0924 14.7128C11.309 14.8234 12.5203 14.4431 13.4869 13.6472C14.4534 12.8512 15.1048 11.6976 15.3123 10.4142C15.3205 10.3471 15.3272 10.2807 15.3345 10.2129C15.4349 9.32747 15.3262 8.4294 15.0181 7.60019ZM9.39728 11.6716C9.42005 11.6832 9.44145 11.6957 9.46485 11.707L9.46825 11.7093C9.44459 11.6972 9.42093 11.6846 9.39728 11.6716ZM14.5349 7.87235V7.86738L14.5358 7.87275L14.5349 7.87235Z" fill="url(#paint0_linear_68_83)"/>
<path d="M15.0181 7.60019C14.8062 7.05641 14.3764 6.46928 14.0398 6.28368C14.2799 6.77957 14.4465 7.31213 14.5337 7.86242V7.86738L14.5346 7.87275C14.9105 9.02 14.8561 10.2778 14.3828 11.3833C13.8239 12.6622 12.4709 13.9734 10.3532 13.9096C8.06498 13.8405 6.0498 12.0295 5.67307 9.65775C5.60449 9.28373 5.67307 9.09411 5.70754 8.79014C5.66051 9.02625 5.63427 9.26653 5.62915 9.50785V9.53469C5.63022 10.837 6.08932 12.0915 6.91571 13.0503C7.7421 14.0091 8.87566 14.6023 10.0924 14.7128C11.309 14.8234 12.5203 14.4431 13.4869 13.6472C14.4534 12.8512 15.1048 11.6976 15.3123 10.4142C15.3205 10.3471 15.3272 10.2807 15.3345 10.2129C15.4349 9.32747 15.3262 8.4294 15.0181 7.60019Z" fill="url(#paint1_radial_68_83)"/>
<path d="M15.0181 7.60019C14.8062 7.05641 14.3764 6.46928 14.0398 6.28368C14.2799 6.77957 14.4465 7.31213 14.5337 7.86242V7.86738L14.5346 7.87275C14.9105 9.02 14.8561 10.2778 14.3828 11.3833C13.8239 12.6622 12.4709 13.9734 10.3532 13.9096C8.06498 13.8405 6.0498 12.0295 5.67307 9.65775C5.60449 9.28373 5.67307 9.09411 5.70754 8.79014C5.66051 9.02625 5.63427 9.26653 5.62915 9.50785V9.53469C5.63022 10.837 6.08932 12.0915 6.91571 13.0503C7.7421 14.0091 8.87566 14.6023 10.0924 14.7128C11.309 14.8234 12.5203 14.4431 13.4869 13.6472C14.4534 12.8512 15.1048 11.6976 15.3123 10.4142C15.3205 10.3471 15.3272 10.2807 15.3345 10.2129C15.4349 9.32747 15.3262 8.4294 15.0181 7.60019Z" fill="url(#paint2_radial_68_83)"/>
<path d="M12.6483 8.21153C12.6589 8.21945 12.6687 8.22737 12.6787 8.23529C12.5562 8.00362 12.4037 7.79151 12.2257 7.60522C10.7099 5.98837 11.8284 4.0995 12.017 4.00355L12.0189 4.0006C10.794 4.76554 10.3783 6.18162 10.3401 6.88993C10.397 6.88577 10.4533 6.88053 10.5115 6.88053C10.9461 6.8814 11.3728 7.00501 11.7481 7.23879C12.1235 7.47258 12.4341 7.8082 12.6483 8.21153Z" fill="url(#paint3_radial_68_83)"/>
<path d="M10.5146 8.5345C10.5065 8.66387 10.0779 9.11008 9.92805 9.11008C8.54127 9.11008 8.31616 10.0048 8.31616 10.0048C8.37757 10.7582 8.86982 11.3787 9.46487 11.707C9.49205 11.722 9.51961 11.7356 9.54716 11.7489C9.5949 11.7714 9.64263 11.7923 9.69036 11.8114C9.89458 11.8885 10.1085 11.9325 10.3249 11.942C12.7556 12.0636 13.2265 8.84195 11.4724 7.90711C11.8862 7.84969 12.3052 7.9582 12.6483 8.21161C12.434 7.8083 12.1234 7.47271 11.7481 7.23894C11.3727 7.00518 10.946 6.88159 10.5114 6.88074C10.4535 6.88074 10.3969 6.88584 10.34 6.89C9.85085 6.92583 9.38314 7.11804 8.99791 7.44157C9.07228 7.50867 9.15621 7.59845 9.333 7.78432C9.66394 8.13189 10.5127 8.49222 10.5146 8.5345Z" fill="url(#paint4_radial_68_83)"/>
<path d="M10.5146 8.5345C10.5065 8.66387 10.0779 9.11008 9.92805 9.11008C8.54127 9.11008 8.31616 10.0048 8.31616 10.0048C8.37757 10.7582 8.86982 11.3787 9.46487 11.707C9.49205 11.722 9.51961 11.7356 9.54716 11.7489C9.5949 11.7714 9.64263 11.7923 9.69036 11.8114C9.89458 11.8885 10.1085 11.9325 10.3249 11.942C12.7556 12.0636 13.2265 8.84195 11.4724 7.90711C11.8862 7.84969 12.3052 7.9582 12.6483 8.21161C12.434 7.8083 12.1234 7.47271 11.7481 7.23894C11.3727 7.00518 10.946 6.88159 10.5114 6.88074C10.4535 6.88074 10.3969 6.88584 10.34 6.89C9.85085 6.92583 9.38314 7.11804 8.99791 7.44157C9.07228 7.50867 9.15621 7.59845 9.333 7.78432C9.66394 8.13189 10.5127 8.49222 10.5146 8.5345Z" fill="url(#paint5_radial_68_83)"/>
<path d="M8.77052 7.26871C8.81003 7.29555 8.84262 7.31891 8.87118 7.33984C8.76009 6.92506 8.75535 6.48609 8.85747 6.0687C8.40762 6.30112 8.00789 6.6306 7.68359 7.03628C7.70738 7.03561 8.4148 7.02205 8.77052 7.26871Z" fill="url(#paint6_radial_68_83)"/>
<path d="M5.6738 9.65775C6.05016 12.0296 8.06572 13.8405 10.354 13.9096C12.4717 13.9735 13.8246 12.6624 14.3836 11.3833C14.8568 10.2779 14.9112 9.0201 14.5353 7.87289V7.86792C14.5353 7.8639 14.5346 7.86175 14.5353 7.86296L14.5362 7.87168C14.7092 9.0764 14.1347 10.2435 13.2365 11.0328L13.2337 11.0395C11.4837 12.5596 9.80886 11.9566 9.46987 11.7105C9.44621 11.6984 9.42256 11.6858 9.3989 11.6728C8.37854 11.1526 7.957 10.1611 8.04735 9.31085C7.80514 9.31466 7.56709 9.24347 7.36204 9.10592C7.157 8.96836 6.99376 8.77034 6.8921 8.53584C7.15994 8.36083 7.46535 8.2619 7.77921 8.24846C8.09307 8.23502 8.40492 8.30753 8.68506 8.45908C9.26261 8.7387 9.91981 8.76626 10.5162 8.53584C10.5143 8.49357 9.66553 8.13324 9.3346 7.78566C9.15781 7.59979 9.07388 7.51028 8.99951 7.44305C8.95932 7.40674 8.91732 7.37278 8.87368 7.34132C8.84474 7.32025 8.81215 7.29744 8.77302 7.27006C8.41729 7.0234 7.70987 7.03696 7.68647 7.03763H7.6842C7.49093 6.77634 7.50452 5.91477 7.51559 5.73481C7.45841 5.75932 7.40383 5.79022 7.35276 5.82701C7.18214 5.95688 7.02264 6.10261 6.87612 6.26249C6.70856 6.44252 6.55543 6.63721 6.41835 6.84451C6.10481 7.31858 5.88242 7.85406 5.76403 8.42029C5.76163 8.43089 5.58837 9.23892 5.6738 9.65775Z" fill="url(#paint7_radial_68_83)"/>
<path d="M12.2259 7.60529C12.404 7.79179 12.5565 8.00412 12.6789 8.23603C12.7057 8.2575 12.7307 8.27897 12.752 8.29991C13.8577 9.38693 13.2784 10.9235 13.2352 11.0329C14.1334 10.2437 14.7074 9.07653 14.5349 7.87181C13.9833 6.40487 13.0482 5.81385 12.2846 4.5266C12.2451 4.46098 12.2068 4.39458 12.1697 4.32745C12.1505 4.29238 12.1326 4.25657 12.1159 4.22008C12.0843 4.15467 12.0599 4.08554 12.0432 4.01409C12.0432 4.01079 12.0421 4.0076 12.0401 4.00512C12.038 4.00265 12.0352 4.00106 12.0321 4.00067C12.0291 3.99979 12.026 3.99979 12.0229 4.00067C12.0223 4.00067 12.0213 4.00187 12.0206 4.00201L12.017 4.00416C11.8284 4.09944 10.7099 5.98844 12.2259 7.60529Z" fill="url(#paint8_radial_68_83)"/>
<path d="M12.7512 8.29924C12.7278 8.27675 12.7034 8.25544 12.6781 8.23536C12.6681 8.22731 12.6583 8.21953 12.6477 8.21161C12.3047 7.95815 11.8857 7.84959 11.4719 7.90698C13.2259 8.84235 12.7553 12.0636 10.3244 11.942C10.108 11.9325 9.89406 11.8885 9.68984 11.8114C9.64211 11.7923 9.59438 11.7715 9.54665 11.7489C9.51909 11.7354 9.49153 11.722 9.46436 11.707L9.46775 11.7093C9.80674 11.9561 11.481 12.559 13.2316 11.0383L13.2344 11.0316C13.278 10.9229 13.8574 9.38586 12.7512 8.29924Z" fill="url(#paint9_radial_68_83)"/>
<path d="M8.31604 10.0048C8.31604 10.0048 8.54116 9.11008 9.92794 9.11008C10.0778 9.11008 10.5068 8.66386 10.5144 8.53436C9.91811 8.76482 9.26091 8.73731 8.68334 8.45773C8.40321 8.30619 8.09135 8.23368 7.77749 8.24712C7.46363 8.26055 7.15823 8.35949 6.89038 8.53449C6.99204 8.76899 7.15528 8.96702 7.36033 9.10457C7.56537 9.24213 7.80342 9.31331 8.04563 9.3095C7.95529 10.1599 8.37682 11.1514 9.39718 11.6714C9.41996 11.6831 9.44135 11.6956 9.46475 11.7069C8.8692 11.3787 8.37745 10.7581 8.31604 10.0048Z" fill="url(#paint10_radial_68_83)"/>
<path d="M15.0181 7.60019C14.8062 7.05641 14.3764 6.46928 14.0398 6.28368C14.2799 6.77957 14.4465 7.31213 14.5337 7.86242L14.5346 7.87114C13.9832 6.40487 13.0481 5.81385 12.2845 4.5266C12.245 4.46098 12.2067 4.39458 12.1696 4.32745C12.1504 4.29238 12.1325 4.25657 12.1159 4.22008C12.0842 4.15467 12.0598 4.08554 12.0431 4.01409C12.0431 4.01079 12.042 4.0076 12.04 4.00512C12.0379 4.00265 12.0351 4.00106 12.032 4.00067C12.029 3.99979 12.0259 3.99979 12.0229 4.00067C12.0222 4.00067 12.0212 4.00187 12.0205 4.00201L12.0169 4.00416L12.0188 4.00067C10.7939 4.76561 10.3783 6.18169 10.34 6.89C10.3969 6.88584 10.4533 6.88061 10.5114 6.88061C10.946 6.88147 11.3727 7.00508 11.7481 7.23886C12.1234 7.47265 12.434 7.80827 12.6482 8.21161C12.3052 7.95815 11.8862 7.84959 11.4724 7.90697C13.2264 8.84235 12.7558 12.0636 10.3249 11.942C10.1085 11.9325 9.89456 11.8885 9.69034 11.8114C9.64261 11.7923 9.59487 11.7715 9.54714 11.7489C9.51959 11.7354 9.49203 11.722 9.46485 11.707L9.46825 11.7093C9.44459 11.6972 9.42093 11.6846 9.39728 11.6716C9.42005 11.6832 9.44145 11.6957 9.46485 11.707C8.86929 11.3787 8.37755 10.7582 8.31614 10.0048C8.31614 10.0048 8.54125 9.11008 9.92803 9.11008C10.0779 9.11008 10.5069 8.66386 10.5145 8.53436C10.5126 8.49222 9.66391 8.13176 9.33298 7.78418C9.15619 7.59844 9.07226 7.50893 8.99789 7.4417C8.9577 7.40539 8.9157 7.37143 8.87206 7.33997C8.76094 6.92515 8.7562 6.48613 8.85835 6.06869C8.40849 6.30112 8.00877 6.6306 7.68447 7.03628H7.68221C7.48893 6.77499 7.50252 5.91342 7.51359 5.73346C7.45641 5.75797 7.40183 5.78887 7.35077 5.82566C7.18015 5.95553 7.02064 6.10126 6.87412 6.26114C6.70716 6.44168 6.55466 6.63682 6.41824 6.84451C6.1047 7.31858 5.88231 7.85406 5.76392 8.42029L5.75737 8.45464C5.74819 8.50027 5.70704 8.73284 5.70113 8.78276C5.70113 8.78652 5.70113 8.77874 5.70113 8.78276C5.66349 9.02269 5.63946 9.26483 5.62915 9.50785V9.53469C5.63022 10.837 6.08932 12.0915 6.91571 13.0503C7.7421 14.0091 8.87566 14.6023 10.0924 14.7128C11.309 14.8234 12.5203 14.4431 13.4869 13.6472C14.4534 12.8512 15.1048 11.6976 15.3123 10.4142C15.3205 10.3471 15.3272 10.2807 15.3345 10.2129C15.4349 9.32747 15.3262 8.4294 15.0181 7.60019Z" fill="url(#paint11_linear_68_83)"/>
</g>
<defs>
<filter id="filter0_di_68_83" x="0" y="0" width="22" height="23" filterUnits="userSpaceOnUse" color-interpolation-filters="sRGB">
<feFlood flood-opacity="0" result="BackgroundImageFix"/>
<feColorMatrix in="SourceAlpha" type="matrix" values="0 0 0 0 0 0 0 0 0 0 0 0 0 0 0 0 0 0 127 0" result="hardAlpha"/>
<feMorphology radius="2" operator="erode" in="SourceAlpha" result="effect1_dropShadow_68_83"/>
<feOffset dy="2"/>
<feGaussianBlur stdDeviation="1.5"/>
<feComposite in2="hardAlpha" operator="out"/>
<feColorMatrix type="matrix" values="0 0 0 0 0 0 0 0 0 0 0 0 0 0 0 0 0 0 0.25 0"/>
<feBlend mode="normal" in2="BackgroundImageFix" result="effect1_dropShadow_68_83"/>
<feBlend mode="normal" in="SourceGraphic" in2="effect1_dropShadow_68_83" result="shape"/>
<feColorMatrix in="SourceAlpha" type="matrix" values="0 0 0 0 0 0 0 0 0 0 0 0 0 0 0 0 0 0 127 0" result="hardAlpha"/>
<feMorphology radius="2" operator="dilate" in="SourceAlpha" result="effect2_innerShadow_68_83"/>
<feOffset/>
<feGaussianBlur stdDeviation="2.5"/>
<feComposite in2="hardAlpha" operator="arithmetic" k2="-1" k3="1"/>
<feColorMatrix type="matrix" values="0 0 0 0 0 0 0 0 0 0 0 0 0 0 0 0 0 0 0.25 0"/>
<feBlend mode="normal" in2="shape" result="effect2_innerShadow_68_83"/>
</filter>
<linearGradient id="paint0_linear_68_83" x1="14.3726" y1="5.6626" x2="5.77598" y2="13.4395" gradientUnits="userSpaceOnUse">
<stop offset="0.048" stop-color="#FFF44F"/>
<stop offset="0.111" stop-color="#FFE847"/>
<stop offset="0.225" stop-color="#FFC830"/>
<stop offset="0.368" stop-color="#FF980E"/>
<stop offset="0.401" stop-color="#FF8B16"/>
<stop offset="0.462" stop-color="#FF672A"/>
<stop offset="0.534" stop-color="#FF3647"/>
<stop offset="0.705" stop-color="#E31587"/>
</linearGradient>
<radialGradient id="paint1_radial_68_83" cx="0" cy="0" r="1" gradientUnits="userSpaceOnUse" gradientTransform="translate(13.9985 5.19102) scale(10.1667 10.843)">
<stop offset="0.129" stop-color="#FFBD4F"/>
<stop offset="0.186" stop-color="#FFAC31"/>
<stop offset="0.247" stop-color="#FF9D17"/>
<stop offset="0.283" stop-color="#FF980E"/>
<stop offset="0.403" stop-color="#FF563B"/>
<stop offset="0.467" stop-color="#FF3750"/>
<stop offset="0.71" stop-color="#F5156C"/>
<stop offset="0.782" stop-color="#EB0878"/>
<stop offset="0.86" stop-color="#E50080"/>
</radialGradient>
<radialGradient id="paint2_radial_68_83" cx="0" cy="0" r="1" gradientUnits="userSpaceOnUse" gradientTransform="translate(10.2835 9.62393) scale(10.1667 10.843)">
<stop offset="0.3" stop-color="#960E18"/>
<stop offset="0.351" stop-color="#B11927" stop-opacity="0.74"/>
<stop offset="0.435" stop-color="#DB293D" stop-opacity="0.343"/>
<stop offset="0.497" stop-color="#F5334B" stop-opacity="0.094"/>
<stop offset="0.53" stop-color="#FF3750" stop-opacity="0"/>
</radialGradient>
<radialGradient id="paint3_radial_68_83" cx="0" cy="0" r="1" gradientUnits="userSpaceOnUse" gradientTransform="translate(11.5093 2.73025) scale(7.36538 7.85528)">
<stop offset="0.132" stop-color="#FFF44F"/>
<stop offset="0.252" stop-color="#FFDC3E"/>
<stop offset="0.506" stop-color="#FF9D12"/>
<stop offset="0.526" stop-color="#FF980E"/>
</radialGradient>
<radialGradient id="paint4_radial_68_83" cx="0" cy="0" r="1" gradientUnits="userSpaceOnUse" gradientTransform="translate(9.15898 12.4562) scale(4.84084 5.16282)">
<stop offset="0.353" stop-color="#3A8EE6"/>
<stop offset="0.472" stop-color="#5C79F0"/>
<stop offset="0.669" stop-color="#9059FF"/>
<stop offset="1" stop-color="#C139E6"/>
</radialGradient>
<radialGradient id="paint5_radial_68_83" cx="0" cy="0" r="1" gradientTransform="matrix(2.49471 -0.643262 0.705807 3.11503 10.8391 8.73531)" gradientUnits="userSpaceOnUse">
<stop offset="0.206" stop-color="#9059FF" stop-opacity="0"/>
<stop offset="0.278" stop-color="#8C4FF3" stop-opacity="0.064"/>
<stop offset="0.747" stop-color="#7716A8" stop-opacity="0.45"/>
<stop offset="0.975" stop-color="#6E008B" stop-opacity="0.6"/>
</radialGradient>
<radialGradient id="paint6_radial_68_83" cx="0" cy="0" r="1" gradientUnits="userSpaceOnUse" gradientTransform="translate(10.1552 4.74736) scale(3.48249 3.71413)">
<stop stop-color="#FFE226"/>
<stop offset="0.121" stop-color="#FFDB27"/>
<stop offset="0.295" stop-color="#FFC82A"/>
<stop offset="0.502" stop-color="#FFA930"/>
<stop offset="0.732" stop-color="#FF7E37"/>
<stop offset="0.792" stop-color="#FF7139"/>
</radialGradient>
<radialGradient id="paint7_radial_68_83" cx="0" cy="0" r="1" gradientUnits="userSpaceOnUse" gradientTransform="translate(12.8926 2.39161) scale(14.8582 15.8465)">
<stop offset="0.113" stop-color="#FFF44F"/>
<stop offset="0.456" stop-color="#FF980E"/>
<stop offset="0.622" stop-color="#FF5634"/>
<stop offset="0.716" stop-color="#FF3647"/>
<stop offset="0.904" stop-color="#E31587"/>
</radialGradient>
<radialGradient id="paint8_radial_68_83" cx="0" cy="0" r="1" gradientTransform="matrix(1.14284 11.5502 -7.10741 0.800966 11.6402 3.27271)" gradientUnits="userSpaceOnUse">
<stop stop-color="#FFF44F"/>
<stop offset="0.06" stop-color="#FFE847"/>
<stop offset="0.168" stop-color="#FFC830"/>
<stop offset="0.304" stop-color="#FF980E"/>
<stop offset="0.356" stop-color="#FF8B16"/>
<stop offset="0.455" stop-color="#FF672A"/>
<stop offset="0.57" stop-color="#FF3647"/>
<stop offset="0.737" stop-color="#E31587"/>
</radialGradient>
<radialGradient id="paint9_radial_68_83" cx="0" cy="0" r="1" gradientUnits="userSpaceOnUse" gradientTransform="translate(10.0731 6.12305) scale(9.27625 9.89325)">
<stop offset="0.137" stop-color="#FFF44F"/>
<stop offset="0.48" stop-color="#FF980E"/>
<stop offset="0.592" stop-color="#FF5634"/>
<stop offset="0.655" stop-color="#FF3647"/>
<stop offset="0.904" stop-color="#E31587"/>
</radialGradient>
<radialGradient id="paint10_radial_68_83" cx="0" cy="0" r="1" gradientUnits="userSpaceOnUse" gradientTransform="translate(12.5217 6.70212) scale(10.1528 10.8281)">
<stop offset="0.094" stop-color="#FFF44F"/>
<stop offset="0.231" stop-color="#FFE141"/>
<stop offset="0.509" stop-color="#FFAF1E"/>
<stop offset="0.626" stop-color="#FF980E"/>
</radialGradient>
<linearGradient id="paint11_linear_68_83" x1="14.2754" y1="5.61805" x2="6.94364" y2="12.4924" gradientUnits="userSpaceOnUse">
<stop offset="0.167" stop-color="#FFF44F" stop-opacity="0.8"/>
<stop offset="0.266" stop-color="#FFF44F" stop-opacity="0.634"/>
<stop offset="0.489" stop-color="#FFF44F" stop-opacity="0.217"/>
<stop offset="0.6" stop-color="#FFF44F" stop-opacity="0"/>
</linearGradient>
<clipPath id="clip0_68_83">
<rect width="11" height="11" fill="white" transform="translate(5 4)"/>
</clipPath>
</defs>
</svg>
